<mxfile host="app.diagrams.net" modified="2023-08-03T13:38:32.916Z" agent="Mozilla/5.0 (Windows NT 10.0; Win64; x64) AppleWebKit/537.36 (KHTML, like Gecko) Chrome/114.0.0.0 Safari/537.36" version="21.6.6" etag="cTtpzgH8bizs-RUkWlrA" type="github">
  <diagram name="페이지-1" id="QejtpL-ddnd6zcCqJZXA">
    <mxGraphModel>
      <root>
        <mxCell id="0" />
        <mxCell id="1" parent="0" />
      </root>
    </mxGraphModel>
  </diagram>
</mxfile>
